<svg width="12" height="12" viewBox="0 0 12 12" fill="none" xmlns="http://www.w3.org/2000/svg">
<mask id="path-1-inside-1_7505_152" fill="white">
<path d="M10.5 6.5V5.5H6.5V1.5H5.5V5.5H1.5V6.5H5.5V10.5H6.5V6.5H10.5Z"/>
</mask>
<path d="M10.5 5.5H11.5V4.5H10.5V5.5ZM10.5 6.5V7.5H11.5V6.5H10.5ZM1.5 6.5H0.5V7.5H1.5V6.5ZM1.5 5.5V4.5H0.5V5.5H1.5ZM5.5 1.5V0.5H4.5V1.5H5.5ZM6.5 1.5H7.5V0.5H6.5V1.5ZM6.5 10.5V11.5H7.5V10.5H6.5ZM5.5 10.5H4.5V11.5H5.5V10.5ZM5.5 5.5V6.5H6.5V5.5H5.5ZM5.5 6.5H6.5V5.5H5.5V6.5ZM6.5 6.5V5.5H5.5V6.5H6.5ZM6.5 5.5H5.5V6.5H6.5V5.5ZM10.5 5.5H9.5V6.5H10.5H11.5V5.5H10.5ZM1.5 6.5H2.5V5.5H1.5H0.5V6.5H1.5ZM5.5 1.5V2.5H6.5V1.5V0.5H5.5V1.5ZM6.5 10.5V9.5H5.5V10.5V11.5H6.5V10.5ZM1.5 5.5V6.5H5.5V5.5V4.5H1.5V5.5ZM5.5 5.5H6.5V1.5H5.5H4.5V5.5H5.5ZM5.5 10.5H6.5V6.5H5.5H4.5V10.5H5.5ZM5.5 6.5V5.5H1.5V6.5V7.5H5.5V6.5ZM10.5 6.5V5.5H6.5V6.5V7.5H10.5V6.5ZM6.5 6.5H5.5V10.5H6.5H7.5V6.5H6.5ZM6.5 1.5H5.5V5.5H6.5H7.5V1.5H6.5ZM6.5 5.5V6.5H10.5V5.5V4.5H6.5V5.5Z" fill="currentColor" mask="url(#path-1-inside-1_7505_152)"/>
</svg>
